<svg xmlns="http://www.w3.org/2000/svg" viewBox="0 0 128 128" width="128" height="128">
  <rect width="128" height="128" rx="20" fill="#1a1a2e"/>
  <!-- open book -->
  <path d="M58 32V100" stroke="#e0e0e0" stroke-width="2.5" stroke-linecap="round"/>
  <path d="M58 32C52 26 38 23 20 26V92C38 89 52 92 58 100" fill="#6c63ff" opacity="0.6"/>
  <path d="M58 32C64 26 78 23 96 26V92C78 89 64 92 58 100" fill="#6c63ff" opacity="0.8"/>
  <!-- page lines left -->
  <line x1="27" y1="40" x2="50" y2="37" stroke="#e0e0e0" stroke-width="1.2" opacity="0.3"/>
  <line x1="27" y1="50" x2="50" y2="47" stroke="#e0e0e0" stroke-width="1.2" opacity="0.3"/>
  <line x1="27" y1="60" x2="50" y2="57" stroke="#e0e0e0" stroke-width="1.2" opacity="0.3"/>
  <line x1="27" y1="70" x2="50" y2="67" stroke="#e0e0e0" stroke-width="1.2" opacity="0.3"/>
  <!-- page lines right -->
  <line x1="66" y1="37" x2="89" y2="40" stroke="#e0e0e0" stroke-width="1.2" opacity="0.3"/>
  <line x1="66" y1="47" x2="89" y2="50" stroke="#e0e0e0" stroke-width="1.2" opacity="0.3"/>
  <line x1="66" y1="57" x2="89" y2="60" stroke="#e0e0e0" stroke-width="1.2" opacity="0.3"/>
  <line x1="66" y1="67" x2="89" y2="70" stroke="#e0e0e0" stroke-width="1.2" opacity="0.3"/>
  <!-- sound waves -->
  <path d="M99 46C104 52 104 76 99 82" stroke="#e0e0e0" stroke-width="3" stroke-linecap="round" fill="none" opacity="0.7"/>
  <path d="M107 38C114 48 114 80 107 90" stroke="#e0e0e0" stroke-width="3" stroke-linecap="round" fill="none" opacity="0.4"/>
</svg>
