<svg xmlns="http://www.w3.org/2000/svg" width="1280" height="820" viewBox="0 0 1280 820" fill="none">
  <rect width="1280" height="820" fill="#141416"/>
  <rect x="120" y="82" width="1040" height="656" rx="28" fill="#18181B" stroke="#2A2A31"/>
  <text x="170" y="150" fill="#E8E4DF" font-family="Georgia, serif" font-size="46" font-weight="700">readcast</text>
  <rect x="317" y="113" width="138" height="34" rx="17" fill="#1F2025" stroke="#2F3036"/>
  <circle cx="341" cy="130" r="6" fill="#5CB85C"/>
  <text x="357" y="136" fill="#A6A3A0" font-family="Arial, sans-serif" font-size="16">kokoro-edge</text>
  <rect x="985" y="104" width="128" height="44" rx="12" fill="#D4956A"/>
  <text x="1020" y="132" fill="#141416" font-family="Arial, sans-serif" font-size="18" font-weight="700">Add</text>
  <rect x="170" y="184" width="940" height="50" rx="12" fill="#1C1C20" stroke="#2A2A31"/>
  <text x="206" y="216" fill="#7E7B78" font-family="Arial, sans-serif" font-size="18">Search articles...</text>
  <rect x="170" y="274" width="940" height="88" rx="14" fill="#221D1A" stroke="#553C2B"/>
  <circle cx="205" cy="318" r="18" fill="#2A2A30"/>
  <polygon points="200,308 200,328 216,318" fill="#C6C2BC"/>
  <text x="240" y="314" fill="#E8E4DF" font-family="Georgia, serif" font-size="28" font-weight="700">Why the US Is Facing Strategic Defeat</text>
  <text x="240" y="343" fill="#9B9894" font-family="Arial, sans-serif" font-size="17">Policy Tensor · Yesterday · 5:42</text>
  <rect x="998" y="304" width="72" height="26" rx="6" fill="#1F2025"/>
  <text x="1012" y="322" fill="#A6A3A0" font-family="Courier New, monospace" font-size="14">af_sky</text>
  <rect x="170" y="370" width="940" height="88" rx="14" fill="#18181B" stroke="#2A2A31"/>
  <circle cx="205" cy="414" r="18" fill="#2A2A30"/>
  <circle cx="205" cy="414" r="6" fill="#D4956A"/>
  <text x="240" y="410" fill="#E8E4DF" font-family="Georgia, serif" font-size="28" font-weight="700">Mountain Discovery: Rule Finding at Scale</text>
  <text x="240" y="439" fill="#9B9894" font-family="Arial, sans-serif" font-size="17">Draft · Today · Processing...</text>
  <rect x="980" y="400" width="90" height="26" rx="6" fill="#1F2025"/>
  <text x="994" y="418" fill="#A6A3A0" font-family="Courier New, monospace" font-size="14">af_heart</text>
  <rect x="120" y="748" width="1040" height="72" fill="#1C1C20" stroke="#2A2A31"/>
  <rect x="120" y="748" width="624" height="4" fill="#D4956A"/>
  <circle cx="197" cy="784" r="24" fill="#D4956A"/>
  <polygon points="190,772 190,796 210,784" fill="#141416"/>
  <text x="240" y="780" fill="#E8E4DF" font-family="Georgia, serif" font-size="24" font-weight="700">Why the US Is Facing Strategic Defeat</text>
  <text x="240" y="806" fill="#9B9894" font-family="Arial, sans-serif" font-size="16">Policy Tensor</text>
  <text x="1030" y="790" fill="#9B9894" font-family="Courier New, monospace" font-size="16">1:17 / 5:42</text>
</svg>
